# Blender 4.5.3 LTS
# www.blender.org
mtllib Untitled.mtl
o Circle
v 0.000000 0.000000 -1.000000
v -0.195090 0.000000 -0.980785
v -0.382683 0.000000 -0.923880
v -0.555570 0.000000 -0.831470
v -0.707107 0.000000 -0.707107
v -0.831470 0.000000 -0.555570
v -0.923880 0.000000 -0.382683
v -0.980785 0.000000 -0.195090
v -1.000000 0.000000 0.000000
v -0.980785 0.000000 0.195090
v -0.923880 0.000000 0.382683
v -0.831470 0.000000 0.555570
v -0.707107 0.000000 0.707107
v -0.555570 0.000000 0.831470
v -0.382683 0.000000 0.923880
v -0.195090 0.000000 0.980785
v 0.000000 0.000000 1.000000
v 0.195090 0.000000 0.980785
v 0.382683 0.000000 0.923880
v 0.555570 0.000000 0.831470
v 0.707107 0.000000 0.707107
v 0.831470 0.000000 0.555570
v 0.923880 0.000000 0.382683
v 0.980785 0.000000 0.195090
v 1.000000 0.000000 0.000000
v 0.980785 0.000000 -0.195090
v 0.923880 0.000000 -0.382683
v 0.831470 0.000000 -0.555570
v 0.707107 0.000000 -0.707107
v 0.555570 0.000000 -0.831470
v 0.382683 0.000000 -0.923880
v 0.195090 0.000000 -0.980785
v 0.000000 1.000000 -1.000000
v -0.195090 1.000000 -0.980785
v -0.382683 1.000000 -0.923880
v -0.555570 1.000000 -0.831470
v -0.707107 1.000000 -0.707107
v -0.831470 1.000000 -0.555570
v -0.923880 1.000000 -0.382683
v -0.980785 1.000000 -0.195090
v -1.000000 1.000000 0.000000
v -0.980785 1.000000 0.195090
v -0.923880 1.000000 0.382683
v -0.831470 1.000000 0.555570
v -0.707107 1.000000 0.707107
v -0.555570 1.000000 0.831470
v -0.382683 1.000000 0.923880
v -0.195090 1.000000 0.980785
v 0.000000 1.000000 1.000000
v 0.195090 1.000000 0.980785
v 0.382683 1.000000 0.923880
v 0.555570 1.000000 0.831470
v 0.707107 1.000000 0.707107
v 0.831470 1.000000 0.555570
v 0.923880 1.000000 0.382683
v 0.980785 1.000000 0.195090
v 1.000000 1.000000 0.000000
v 0.980785 1.000000 -0.195090
v 0.923880 1.000000 -0.382683
v 0.831470 1.000000 -0.555570
v 0.707107 1.000000 -0.707107
v 0.555570 1.000000 -0.831470
v 0.382683 1.000000 -0.923880
v 0.195090 1.000000 -0.980785
v 0.000000 0.000000 -1.120431
v -0.218585 0.000000 -1.098902
v -0.428770 0.000000 -1.035143
v -0.622478 0.000000 -0.931604
v -0.792264 0.000000 -0.792264
v -0.931604 0.000000 -0.622478
v -1.035143 0.000000 -0.428770
v -1.098902 0.000000 -0.218585
v -1.120431 0.000000 0.000000
v -1.098902 0.000000 0.218585
v -1.035143 0.000000 0.428770
v -0.931604 0.000000 0.622478
v -0.792264 0.000000 0.792264
v -0.622478 0.000000 0.931604
v -0.428770 0.000000 1.035143
v -0.218585 0.000000 1.098902
v 0.000000 0.000000 1.120431
v 0.218585 0.000000 1.098902
v 0.428770 0.000000 1.035143
v 0.622478 0.000000 0.931604
v 0.792264 0.000000 0.792264
v 0.931604 0.000000 0.622478
v 1.035143 0.000000 0.428770
v 1.098902 0.000000 0.218585
v 1.120431 0.000000 0.000000
v 1.098902 0.000000 -0.218585
v 1.035143 0.000000 -0.428770
v 0.931604 0.000000 -0.622478
v 0.792264 0.000000 -0.792264
v 0.622478 0.000000 -0.931604
v 0.428770 0.000000 -1.035143
v 0.218585 0.000000 -1.098902
v 0.000000 1.000000 -1.120431
v -0.218585 1.000000 -1.098902
v -0.428770 1.000000 -1.035143
v -0.622478 1.000000 -0.931604
v -0.792264 1.000000 -0.792264
v -0.931604 1.000000 -0.622478
v -1.035143 1.000000 -0.428770
v -1.098902 1.000000 -0.218585
v -1.120431 1.000000 0.000000
v -1.098902 1.000000 0.218585
v -1.035143 1.000000 0.428770
v -0.931604 1.000000 0.622478
v -0.792264 1.000000 0.792264
v -0.622478 1.000000 0.931604
v -0.428770 1.000000 1.035143
v -0.218585 1.000000 1.098902
v 0.000000 1.000000 1.120431
v 0.218585 1.000000 1.098902
v 0.428770 1.000000 1.035143
v 0.622478 1.000000 0.931604
v 0.792264 1.000000 0.792264
v 0.931604 1.000000 0.622478
v 1.035143 1.000000 0.428770
v 1.098902 1.000000 0.218585
v 1.120431 1.000000 0.000000
v 1.098902 1.000000 -0.218585
v 1.035143 1.000000 -0.428770
v 0.931604 1.000000 -0.622478
v 0.792264 1.000000 -0.792264
v 0.622478 1.000000 -0.931604
v 0.428770 1.000000 -1.035143
v 0.218585 1.000000 -1.098902
v -0.195090 0.000000 -0.980785
v 0.000000 0.000000 -1.000000
v -0.382683 0.000000 -0.923880
v -0.555570 0.000000 -0.831470
v -0.707107 0.000000 -0.707107
v -0.831470 0.000000 -0.555570
v -0.923880 0.000000 -0.382683
v -0.980785 0.000000 -0.195090
v -1.000000 0.000000 0.000000
v -0.980785 0.000000 0.195090
v -0.923880 0.000000 0.382683
v -0.831470 0.000000 0.555570
v -0.707107 0.000000 0.707107
v -0.555570 0.000000 0.831470
v -0.382683 0.000000 0.923880
v -0.195090 0.000000 0.980785
v 0.000000 0.000000 1.000000
v 0.195090 0.000000 0.980785
v 0.382683 0.000000 0.923880
v 0.555570 0.000000 0.831470
v 0.707107 0.000000 0.707107
v 0.831470 0.000000 0.555570
v 0.923880 0.000000 0.382683
v 0.980785 0.000000 0.195090
v 1.000000 0.000000 0.000000
v 0.980785 0.000000 -0.195090
v 0.923880 0.000000 -0.382683
v 0.831470 0.000000 -0.555570
v 0.707107 0.000000 -0.707107
v 0.555570 0.000000 -0.831470
v 0.382683 0.000000 -0.923880
v 0.195090 0.000000 -0.980785
v -0.195090 1.000000 -0.980785
v 0.000000 1.000000 -1.000000
v -0.382683 1.000000 -0.923880
v -0.555570 1.000000 -0.831470
v -0.707107 1.000000 -0.707107
v -0.831470 1.000000 -0.555570
v -0.923880 1.000000 -0.382683
v -0.980785 1.000000 -0.195090
v -1.000000 1.000000 0.000000
v -0.980785 1.000000 0.195090
v -0.923880 1.000000 0.382683
v -0.831470 1.000000 0.555570
v -0.707107 1.000000 0.707107
v -0.555570 1.000000 0.831470
v -0.382683 1.000000 0.923880
v -0.195090 1.000000 0.980785
v 0.000000 1.000000 1.000000
v 0.195090 1.000000 0.980785
v 0.382683 1.000000 0.923880
v 0.555570 1.000000 0.831470
v 0.707107 1.000000 0.707107
v 0.831470 1.000000 0.555570
v 0.923880 1.000000 0.382683
v 0.980785 1.000000 0.195090
v 1.000000 1.000000 0.000000
v 0.980785 1.000000 -0.195090
v 0.923880 1.000000 -0.382683
v 0.831470 1.000000 -0.555570
v 0.707107 1.000000 -0.707107
v 0.555570 1.000000 -0.831470
v 0.382683 1.000000 -0.923880
v 0.195090 1.000000 -0.980785
vn 0.9952 -0.0000 0.0980
vn -0.8819 -0.0000 0.4714
vn 0.9952 -0.0000 -0.0980
vn -0.7730 -0.0000 0.6344
vn 0.9569 -0.0000 -0.2903
vn -0.6344 -0.0000 0.7730
vn 0.8819 -0.0000 -0.4714
vn -0.4714 -0.0000 0.8819
vn -0.0980 -0.0000 -0.9952
vn 0.7730 -0.0000 -0.6344
vn -0.2903 -0.0000 0.9569
vn -0.2903 -0.0000 -0.9569
vn 0.6344 -0.0000 -0.7730
vn -0.0980 -0.0000 0.9952
vn -0.4714 -0.0000 -0.8819
vn 0.4714 -0.0000 -0.8819
vn 0.0980 -0.0000 0.9952
vn -0.6344 -0.0000 -0.7730
vn 0.2903 -0.0000 -0.9569
vn 0.2903 -0.0000 0.9569
vn -0.7730 -0.0000 -0.6344
vn 0.0980 -0.0000 -0.9952
vn 0.4714 -0.0000 0.8819
vn -0.8819 -0.0000 -0.4714
vn 0.6344 -0.0000 0.7730
vn -0.9569 -0.0000 -0.2903
vn 0.7730 -0.0000 0.6344
vn -0.9952 -0.0000 -0.0980
vn 0.8819 -0.0000 0.4714
vn -0.9952 -0.0000 0.0980
vn 0.9569 -0.0000 0.2903
vn -0.9569 -0.0000 0.2903
vn -0.0000 1.0000 -0.0000
vn -0.0000 -1.0000 -0.0000
vt 0.000000 0.000000
s 0
f 25/1/1 57/1/1 56/1/1 24/1/1
f 12/1/2 44/1/2 43/1/2 11/1/2
f 26/1/3 58/1/3 57/1/3 25/1/3
f 13/1/4 45/1/4 44/1/4 12/1/4
f 27/1/5 59/1/5 58/1/5 26/1/5
f 14/1/6 46/1/6 45/1/6 13/1/6
f 28/1/7 60/1/7 59/1/7 27/1/7
f 15/1/8 47/1/8 46/1/8 14/1/8
f 2/1/9 34/1/9 33/1/9 1/1/9
f 29/1/10 61/1/10 60/1/10 28/1/10
f 16/1/11 48/1/11 47/1/11 15/1/11
f 3/1/12 35/1/12 34/1/12 2/1/12
f 30/1/13 62/1/13 61/1/13 29/1/13
f 17/1/14 49/1/14 48/1/14 16/1/14
f 4/1/15 36/1/15 35/1/15 3/1/15
f 31/1/16 63/1/16 62/1/16 30/1/16
f 18/1/17 50/1/17 49/1/17 17/1/17
f 5/1/18 37/1/18 36/1/18 4/1/18
f 32/1/19 64/1/19 63/1/19 31/1/19
f 19/1/20 51/1/20 50/1/20 18/1/20
f 6/1/21 38/1/21 37/1/21 5/1/21
f 1/1/22 33/1/22 64/1/22 32/1/22
f 20/1/23 52/1/23 51/1/23 19/1/23
f 7/1/24 39/1/24 38/1/24 6/1/24
f 21/1/25 53/1/25 52/1/25 20/1/25
f 8/1/26 40/1/26 39/1/26 7/1/26
f 22/1/27 54/1/27 53/1/27 21/1/27
f 9/1/28 41/1/28 40/1/28 8/1/28
f 23/1/29 55/1/29 54/1/29 22/1/29
f 10/1/30 42/1/30 41/1/30 9/1/30
f 24/1/31 56/1/31 55/1/31 23/1/31
f 11/1/32 43/1/32 42/1/32 10/1/32
f 89/1/28 88/1/28 120/1/28 121/1/28
f 76/1/7 75/1/7 107/1/7 108/1/7
f 90/1/30 89/1/30 121/1/30 122/1/30
f 77/1/10 76/1/10 108/1/10 109/1/10
f 91/1/32 90/1/32 122/1/32 123/1/32
f 78/1/13 77/1/13 109/1/13 110/1/13
f 92/1/2 91/1/2 123/1/2 124/1/2
f 79/1/16 78/1/16 110/1/16 111/1/16
f 66/1/17 65/1/17 97/1/17 98/1/17
f 93/1/4 92/1/4 124/1/4 125/1/4
f 80/1/19 79/1/19 111/1/19 112/1/19
f 67/1/20 66/1/20 98/1/20 99/1/20
f 94/1/6 93/1/6 125/1/6 126/1/6
f 81/1/22 80/1/22 112/1/22 113/1/22
f 68/1/23 67/1/23 99/1/23 100/1/23
f 95/1/8 94/1/8 126/1/8 127/1/8
f 82/1/9 81/1/9 113/1/9 114/1/9
f 69/1/25 68/1/25 100/1/25 101/1/25
f 96/1/11 95/1/11 127/1/11 128/1/11
f 83/1/12 82/1/12 114/1/12 115/1/12
f 70/1/27 69/1/27 101/1/27 102/1/27
f 65/1/14 96/1/14 128/1/14 97/1/14
f 84/1/15 83/1/15 115/1/15 116/1/15
f 71/1/29 70/1/29 102/1/29 103/1/29
f 85/1/18 84/1/18 116/1/18 117/1/18
f 72/1/31 71/1/31 103/1/31 104/1/31
f 86/1/21 85/1/21 117/1/21 118/1/21
f 73/1/1 72/1/1 104/1/1 105/1/1
f 87/1/24 86/1/24 118/1/24 119/1/24
f 74/1/3 73/1/3 105/1/3 106/1/3
f 88/1/26 87/1/26 119/1/26 120/1/26
f 75/1/5 74/1/5 106/1/5 107/1/5
f 17/1/33 16/1/33 144/1/33 145/1/33
f 43/1/33 44/1/33 172/1/33 171/1/33
f 18/1/33 17/1/33 145/1/33 146/1/33
f 44/1/33 45/1/33 173/1/33 172/1/33
f 19/1/33 18/1/33 146/1/33 147/1/33
f 45/1/33 46/1/33 174/1/33 173/1/33
f 20/1/33 19/1/33 147/1/33 148/1/33
f 46/1/33 47/1/33 175/1/33 174/1/33
f 21/1/33 20/1/33 148/1/33 149/1/33
f 47/1/33 48/1/33 176/1/33 175/1/33
f 22/1/33 21/1/33 149/1/33 150/1/33
f 48/1/33 49/1/33 177/1/33 176/1/33
f 23/1/33 22/1/33 150/1/33 151/1/33
f 49/1/33 50/1/33 178/1/33 177/1/33
f 24/1/33 23/1/33 151/1/33 152/1/33
f 50/1/33 51/1/33 179/1/33 178/1/33
f 25/1/33 24/1/33 152/1/33 153/1/33
f 51/1/33 52/1/33 180/1/33 179/1/33
f 26/1/33 25/1/33 153/1/33 154/1/33
f 52/1/33 53/1/33 181/1/33 180/1/33
f 27/1/33 26/1/33 154/1/33 155/1/33
f 53/1/33 54/1/33 182/1/33 181/1/33
f 28/1/33 27/1/33 155/1/33 156/1/33
f 2/1/33 1/1/33 130/1/33 129/1/33
f 54/1/33 55/1/33 183/1/33 182/1/33
f 29/1/33 28/1/33 156/1/33 157/1/33
f 3/1/33 2/1/33 129/1/33 131/1/33
f 55/1/33 56/1/33 184/1/33 183/1/33
f 30/1/33 29/1/33 157/1/33 158/1/33
f 4/1/33 3/1/33 131/1/33 132/1/33
f 56/1/33 57/1/33 185/1/33 184/1/33
f 31/1/33 30/1/33 158/1/33 159/1/33
f 5/1/33 4/1/33 132/1/33 133/1/33
f 57/1/33 58/1/33 186/1/33 185/1/33
f 32/1/33 31/1/33 159/1/33 160/1/33
f 6/1/33 5/1/33 133/1/33 134/1/33
f 58/1/33 59/1/33 187/1/33 186/1/33
f 1/1/33 32/1/33 160/1/33 130/1/33
f 7/1/33 6/1/33 134/1/33 135/1/33
f 59/1/33 60/1/33 188/1/33 187/1/33
f 33/1/33 34/1/33 161/1/33 162/1/33
f 8/1/33 7/1/33 135/1/33 136/1/33
f 60/1/33 61/1/33 189/1/33 188/1/33
f 34/1/33 35/1/33 163/1/33 161/1/33
f 9/1/33 8/1/33 136/1/33 137/1/33
f 61/1/33 62/1/33 190/1/33 189/1/33
f 35/1/33 36/1/33 164/1/33 163/1/33
f 10/1/33 9/1/33 137/1/33 138/1/33
f 62/1/33 63/1/33 191/1/33 190/1/33
f 36/1/33 37/1/33 165/1/33 164/1/33
f 11/1/33 10/1/33 138/1/33 139/1/33
f 63/1/33 64/1/33 192/1/33 191/1/33
f 37/1/33 38/1/33 166/1/33 165/1/33
f 12/1/33 11/1/33 139/1/33 140/1/33
f 64/1/33 33/1/33 162/1/33 192/1/33
f 38/1/33 39/1/33 167/1/33 166/1/33
f 13/1/33 12/1/33 140/1/33 141/1/33
f 39/1/33 40/1/33 168/1/33 167/1/33
f 14/1/33 13/1/33 141/1/33 142/1/33
f 40/1/33 41/1/33 169/1/33 168/1/33
f 15/1/33 14/1/33 142/1/33 143/1/33
f 41/1/33 42/1/33 170/1/33 169/1/33
f 16/1/33 15/1/33 143/1/33 144/1/33
f 42/1/33 43/1/33 171/1/33 170/1/33
f 65/1/33 66/1/33 129/1/33 130/1/33
f 66/1/33 67/1/33 131/1/33 129/1/33
f 67/1/33 68/1/33 132/1/33 131/1/33
f 68/1/33 69/1/33 133/1/33 132/1/33
f 69/1/33 70/1/33 134/1/33 133/1/33
f 70/1/33 71/1/33 135/1/33 134/1/33
f 71/1/33 72/1/33 136/1/33 135/1/33
f 72/1/33 73/1/33 137/1/33 136/1/33
f 73/1/33 74/1/33 138/1/33 137/1/33
f 74/1/33 75/1/33 139/1/33 138/1/33
f 75/1/33 76/1/33 140/1/33 139/1/33
f 76/1/33 77/1/33 141/1/33 140/1/33
f 77/1/33 78/1/33 142/1/33 141/1/33
f 78/1/33 79/1/33 143/1/33 142/1/33
f 79/1/33 80/1/33 144/1/33 143/1/33
f 80/1/33 81/1/33 145/1/33 144/1/33
f 81/1/33 82/1/33 146/1/33 145/1/33
f 82/1/33 83/1/33 147/1/33 146/1/33
f 83/1/33 84/1/33 148/1/33 147/1/33
f 84/1/33 85/1/33 149/1/33 148/1/33
f 85/1/33 86/1/33 150/1/33 149/1/33
f 86/1/33 87/1/33 151/1/33 150/1/33
f 87/1/33 88/1/33 152/1/33 151/1/33
f 88/1/33 89/1/33 153/1/33 152/1/33
f 89/1/33 90/1/33 154/1/33 153/1/33
f 90/1/33 91/1/33 155/1/33 154/1/33
f 91/1/33 92/1/33 156/1/33 155/1/33
f 92/1/33 93/1/33 157/1/33 156/1/33
f 93/1/33 94/1/33 158/1/33 157/1/33
f 94/1/33 95/1/33 159/1/33 158/1/33
f 95/1/33 96/1/33 160/1/33 159/1/33
f 96/1/33 65/1/33 130/1/33 160/1/33
f 98/1/34 97/1/34 162/1/34 161/1/34
f 99/1/34 98/1/34 161/1/34 163/1/34
f 100/1/34 99/1/34 163/1/34 164/1/34
f 101/1/34 100/1/34 164/1/34 165/1/34
f 102/1/34 101/1/34 165/1/34 166/1/34
f 103/1/34 102/1/34 166/1/34 167/1/34
f 104/1/34 103/1/34 167/1/34 168/1/34
f 105/1/34 104/1/34 168/1/34 169/1/34
f 106/1/34 105/1/34 169/1/34 170/1/34
f 107/1/34 106/1/34 170/1/34 171/1/34
f 108/1/34 107/1/34 171/1/34 172/1/34
f 109/1/34 108/1/34 172/1/34 173/1/34
f 110/1/34 109/1/34 173/1/34 174/1/34
f 111/1/34 110/1/34 174/1/34 175/1/34
f 112/1/34 111/1/34 175/1/34 176/1/34
f 113/1/34 112/1/34 176/1/34 177/1/34
f 114/1/34 113/1/34 177/1/34 178/1/34
f 115/1/34 114/1/34 178/1/34 179/1/34
f 116/1/34 115/1/34 179/1/34 180/1/34
f 117/1/34 116/1/34 180/1/34 181/1/34
f 118/1/34 117/1/34 181/1/34 182/1/34
f 119/1/34 118/1/34 182/1/34 183/1/34
f 120/1/34 119/1/34 183/1/34 184/1/34
f 121/1/34 120/1/34 184/1/34 185/1/34
f 122/1/34 121/1/34 185/1/34 186/1/34
f 123/1/34 122/1/34 186/1/34 187/1/34
f 124/1/34 123/1/34 187/1/34 188/1/34
f 125/1/34 124/1/34 188/1/34 189/1/34
f 126/1/34 125/1/34 189/1/34 190/1/34
f 127/1/34 126/1/34 190/1/34 191/1/34
f 128/1/34 127/1/34 191/1/34 192/1/34
f 97/1/34 128/1/34 192/1/34 162/1/34
